HIERARCHY
ROOT Hips
{
	OFFSET 0.000000 0.000000 0.000000
	CHANNELS 6 Xposition Yposition Zposition Zrotation Yrotation Xrotation
	JOINT Spine
	{
		OFFSET 0.000000 -10.661262 -0.000008
		CHANNELS 3 Zrotation Yrotation Xrotation
		JOINT Spine1
		{
			OFFSET 0.000000 -29.093658 -0.000033
			CHANNELS 3 Zrotation Yrotation Xrotation
			JOINT Neck
			{
				OFFSET 0.000000 -31.693968 -0.000035
				CHANNELS 3 Zrotation Yrotation Xrotation
				JOINT Head
				{
					OFFSET 0.000000 -20.152393 -2.600326
					CHANNELS 3 Zrotation Yrotation Xrotation
					End Site
					{
						OFFSET 0.000000 -26.003061 -0.000029
					}
				}
			}
			JOINT LeftShoulder
			{
				OFFSET 5.236346 -25.591249 0.687322
				CHANNELS 3 Zrotation Yrotation Xrotation
				JOINT LeftArm
				{
					OFFSET 18.684721 0.000000 0.000000
					CHANNELS 3 Zrotation Yrotation Xrotation
					JOINT LeftForeArm
					{
						OFFSET 36.637775 0.000000 0.000000
						CHANNELS 3 Zrotation Yrotation Xrotation
						JOINT LeftHand
						{
							OFFSET 34.050068 0.000000 0.000000
							CHANNELS 3 Zrotation Yrotation Xrotation
							End Site
							{
								OFFSET 19.502325 0.000000 0.000000
							}
						}
					}
				}
			}
			JOINT RightShoulder
			{
				OFFSET -5.164100 -25.591249 0.687322
				CHANNELS 3 Zrotation Yrotation Xrotation
				JOINT RightArm
				{
					OFFSET -18.684721 0.000000 0.000000
					CHANNELS 3 Zrotation Yrotation Xrotation
					JOINT RightForeArm
					{
						OFFSET -36.637783 0.000000 0.000000
						CHANNELS 3 Zrotation Yrotation Xrotation
						JOINT RightHand
						{
							OFFSET -34.050068 0.000000 0.000000
							CHANNELS 3 Zrotation Yrotation Xrotation
							End Site
							{
								OFFSET -19.502316 0.000000 0.000000
							}
						}
					}
				}
			}
		}
	}
	JOINT LeftUpLeg
	{
		OFFSET 13.001543 0.000000 0.000000
		CHANNELS 3 Zrotation Yrotation Xrotation
		JOINT LeftLeg
		{
			OFFSET 0.000000 54.679955 0.000054
			CHANNELS 3 Zrotation Yrotation Xrotation
			JOINT LeftFoot
			{
				OFFSET 0.000000 57.325806 0.000057
				CHANNELS 3 Zrotation Yrotation Xrotation
				JOINT LeftToeBase
				{
					OFFSET 0.000000 8.451000 -19.502308
					CHANNELS 3 Zrotation Yrotation Xrotation
					End Site
					{
						OFFSET 0.000000 0.000000 -5.200621
					}
				}
			}
		}
	}
	JOINT RightUpLeg
	{
		OFFSET -13.001543 0.000000 0.000000
		CHANNELS 3 Zrotation Yrotation Xrotation
		JOINT RightLeg
		{
			OFFSET 0.000000 54.679955 0.000054
			CHANNELS 3 Zrotation Yrotation Xrotation
			JOINT RightFoot
			{
				OFFSET 0.000000 57.325806 0.000057
				CHANNELS 3 Zrotation Yrotation Xrotation
				JOINT RightToeBase
				{
					OFFSET 0.000000 8.451000 -19.502308
					CHANNELS 3 Zrotation Yrotation Xrotation
					End Site
					{
						OFFSET 0.000000 0.000000 -5.200621
					}
				}
			}
		}
	}
}
MOTION
Frames: 16
Frame Time: 0.041667
159.703568 -115.158379 6.477128 175.887575 26.153211 -193.208348 -5.049535 1.118024 -12.779307 -0.950877 0.746751 19.731406 -7.539351 -8.864414 12.294156 11.858523 -12.743152 4.057616 -17.057593 -2.207192 -8.065862 26.612312 17.473772 4.200936 -15.059563 17.488436 -15.202160 4.536663 2.399160 -12.779239 16.127846 7.223749 -3.833905 -20.968935 -17.895145 27.339126 127.006439 -47.924357 -80.052003 26.966024 -6.775933 1.758590 8.407545 14.545716 10.360252 4.894881 8.394494 20.229740 -11.846721 -8.446201 -2.612247 0.000000 -0.000001 -0.000004 8.796261 -5.787183 -76.531136 -29.963067 48.549415 54.264364 -5.739709 26.293348 0.526390 0.000005 0.000001 -0.000004 
159.419739 -115.083275 6.614228 176.146645 26.991509 -192.888149 -4.899553 1.252155 -12.922565 -0.806696 0.761402 19.566245 -7.460692 -8.876494 12.242127 11.766775 -12.728245 4.129844 -17.034389 -2.207900 -8.037826 26.641177 17.555645 4.232562 -15.099163 17.479091 -15.286148 4.512665 2.352295 -12.860639 16.145452 7.316780 -3.787416 -20.913809 -17.861305 27.052928 127.277707 -48.085075 -80.507419 26.929547 -6.785952 1.856164 8.643092 14.682683 10.195827 4.982588 8.450004 20.294517 -11.847656 -7.955146 -2.680934 -0.000000 0.000000 -0.000004 8.438385 -5.963645 -75.820714 -30.052330 47.889632 53.232169 -6.248732 25.943741 0.657021 -0.000002 -0.000004 0.000005 
159.127914 -115.005989 6.769543 176.385838 27.848655 -192.620651 -4.757752 1.388657 -13.045394 -0.656912 0.776275 19.430199 -7.434222 -8.818491 12.267678 11.794401 -12.661507 4.069085 -17.057108 -2.172920 -7.994273 26.694340 17.658421 4.097535 -15.081041 17.456210 -15.250417 4.500810 2.370987 -12.830332 16.126514 7.378845 -3.750238 -20.833301 -17.772007 26.768408 127.518416 -48.210774 -80.913556 26.928798 -6.851623 1.903632 8.879283 14.643555 10.082556 4.973923 8.597691 20.395805 -11.878145 -7.383956 -2.762531 -0.000000 -0.000001 0.000002 8.085418 -6.155054 -75.086086 -29.791472 47.300757 52.449238 -6.734955 25.483116 0.869029 -0.000005 0.000000 -0.000008 
158.837051 -114.910454 6.911663 176.684727 28.692221 -192.301080 -4.558925 1.496046 -13.150207 -0.526035 0.782349 19.270207 -7.408097 -8.776117 12.254042 11.819830 -12.611086 4.028796 -17.045072 -2.101996 -8.004782 26.679137 17.707655 3.971467 -15.019584 17.448943 -15.187228 4.504843 2.367724 -12.777745 16.135695 7.474705 -3.747181 -20.814342 -17.674405 26.568005 127.763073 -48.302568 -81.275925 26.915506 -6.829404 1.977384 9.128099 14.702139 9.952096 4.957161 8.408077 20.440444 -11.954557 -6.569258 -2.884768 -0.000000 -0.000001 -0.000002 7.763149 -6.360874 -74.389742 -29.563210 46.564903 51.698665 -6.928844 25.068357 1.119993 0.000010 0.000000 -0.000000 
158.536041 -114.825600 7.060455 176.911011 29.568312 -192.032121 -4.460581 1.647546 -13.276085 -0.337970 0.798225 19.177144 -7.353005 -8.775921 12.181179 11.761111 -12.584859 4.028482 -17.062434 -2.107358 -7.958624 26.730551 17.822993 4.074682 -15.117603 17.414629 -15.287319 4.487482 2.322680 -12.869354 16.145326 7.532570 -3.739794 -20.801980 -17.555205 26.246523 128.070869 -48.453447 -81.757303 26.984411 -6.823295 2.082918 9.302711 14.776233 9.924335 5.058967 8.552114 20.459227 -12.095644 -6.071282 -3.046850 -0.000000 -0.000001 -0.000004 7.444391 -6.532211 -73.603840 -29.216148 45.937663 50.966161 -7.138917 24.589239 1.365421 -0.000003 -0.000007 0.000011 
158.234131 -114.736076 7.240570 177.114018 30.484142 -191.792627 -4.274811 1.823101 -13.401471 -0.287329 0.841988 19.098701 -7.289920 -8.744426 12.125682 11.736944 -12.528416 4.002015 -17.039690 -2.063528 -7.963585 26.761053 17.906961 4.032996 -15.122954 17.412922 -15.284227 4.442018 2.328472 -12.866394 16.143002 7.665912 -3.659423 -20.763929 -17.574145 26.081791 128.209645 -48.347801 -82.237103 26.494785 -7.237871 1.571114 9.497028 14.904781 9.911585 5.076682 8.590791 20.456575 -12.163367 -5.444149 -3.182674 0.000000 -0.000001 -0.000005 7.090297 -6.711466 -72.786812 -28.809280 45.080488 50.367225 -7.577395 23.956011 1.439599 0.000003 0.000001 -0.000002 
157.927261 -114.632584 7.382521 177.360205 31.340111 -191.485965 -4.161560 1.940195 -13.535569 -0.107744 0.847607 19.018163 -7.286602 -8.708696 12.063479 11.788694 -12.489736 3.941217 -17.059386 -2.018925 -7.935189 26.766722 17.995481 3.902313 -15.117657 17.417918 -15.243968 4.458815 2.357533 -12.824766 16.135171 7.750288 -3.623255 -20.749310 -17.494027 25.689489 128.492319 -48.544917 -82.649899 26.598614 -7.168175 1.790203 9.688215 14.914509 9.817372 5.208872 8.904775 20.525864 -12.276299 -5.086634 -3.284517 0.000000 -0.000002 -0.000003 6.721292 -6.925551 -72.036523 -28.262887 44.212443 49.798653 -7.835537 23.579592 1.673381 0.000005 0.000002 -0.000000 
157.626846 -114.538345 7.516140 177.599071 32.213696 -191.179413 -4.026949 2.072940 -13.623678 0.018050 0.866119 18.883077 -7.212168 -8.670156 12.021896 11.762658 -12.414710 3.842003 -17.059784 -1.973042 -7.943488 26.821084 18.031226 4.082955 -15.240947 17.432883 -15.361896 4.419405 2.296217 -12.924653 16.171926 7.834453 -3.562688 -20.771104 -17.429610 25.484652 128.856546 -48.352265 -83.949172 25.448767 -8.433740 0.488189 9.927022 15.078684 9.724321 5.253476 8.983943 20.596948 -12.412072 -4.632183 -3.375496 0.000000 0.000002 -0.000005 6.422418 -7.153100 -71.259411 -27.502452 43.473915 49.357409 -7.943592 22.898317 1.923133 -0.000004 -0.000004 -0.000000 
157.313110 -114.430748 7.648753 177.858973 33.074515 -190.835554 -3.882349 2.181134 -13.761345 0.150206 0.875951 18.799085 -7.160349 -8.647290 11.923483 11.719170 -12.365964 3.824425 -17.077966 -1.918011 -7.933131 26.857991 18.114065 4.019905 -15.254333 17.456533 -15.358145 4.346251 2.330297 -12.915716 16.116543 7.808791 -3.641450 -20.644424 -17.206667 24.526714 129.633125 -48.983282 -85.349818 25.510430 -8.408858 0.929306 10.184732 15.127284 9.626767 5.282750 9.224402 20.669985 -12.516946 -4.293748 -3.449715 -0.000000 0.000001 0.000002 6.172801 -7.385455 -70.525685 -26.890523 42.550296 48.780617 -8.444971 22.491673 2.139057 -0.000001 -0.000000 -0.000005 
156.999054 -114.327736 7.774220 178.116881 33.943906 -190.517526 -3.753782 2.312098 -13.859812 0.293061 0.891697 18.704311 -7.148318 -8.611545 11.920016 11.787458 -12.322940 3.704838 -17.077739 -1.813613 -7.928529 26.875462 18.105645 3.941918 -15.285465 17.517087 -15.339698 4.369088 2.307159 -12.884523 16.123116 7.778180 -3.628077 -20.700160 -16.983489 24.590182 129.688353 -48.738304 -85.343958 25.481336 -8.320863 0.703918 10.412404 15.159538 9.540903 5.533616 9.844907 20.809437 -12.684431 -4.403595 -3.445060 0.000000 -0.000001 -0.000002 5.949958 -7.626451 -69.743048 -26.138675 41.675229 48.249262 -8.852752 22.058583 2.415703 -0.000004 0.000003 0.000004 
156.679962 -114.220634 7.909287 178.381455 34.786089 -190.158136 -3.618141 2.404939 -13.999560 0.412598 0.898906 18.646621 -7.100680 -8.592686 11.827518 11.808085 -12.286823 3.662831 -17.064500 -1.769977 -7.928554 26.909441 18.181765 4.031111 -15.371330 17.527032 -15.390175 4.374111 2.361388 -12.918032 16.107920 7.869977 -3.727924 -20.690185 -16.885554 24.224798 129.730154 -49.275696 -84.467706 26.925548 -6.900236 2.576789 10.667635 15.335899 9.465434 5.584336 9.888588 20.842406 -12.834629 -4.072788 -3.533820 -0.000000 0.000001 -0.000003 5.787597 -7.928408 -68.999794 -25.400985 40.760288 47.653318 -9.358883 21.705117 2.663666 -0.000006 -0.000006 0.000003 
156.365479 -114.120384 8.032234 178.612479 35.650241 -189.803457 -3.500671 2.510540 -14.116818 0.523905 0.912447 18.551875 -7.094082 -8.538626 11.767088 11.908099 -12.232923 3.572335 -17.062265 -1.717630 -7.955637 26.960107 18.216567 4.123332 -15.443860 17.616062 -15.443570 4.321338 2.309255 -12.950711 16.090346 7.936158 -3.593161 -20.675152 -16.797064 24.135442 129.770234 -49.116556 -84.430639 26.842642 -6.868963 2.468714 10.893056 15.472817 9.393084 5.515155 9.735659 20.832309 -12.858995 -3.522229 -3.700645 0.000000 0.000001 -0.000005 5.573112 -8.195950 -68.223317 -24.573258 39.748494 47.074593 -9.765456 21.292380 3.004151 0.000005 -0.000006 0.000007 
156.033112 -114.021927 8.164944 178.878105 36.478428 -189.448520 -3.381702 2.587396 -14.242249 0.645370 0.914592 18.497824 -7.036762 -8.521031 11.688104 11.900931 -12.191344 3.525581 -17.066037 -1.690036 -7.911450 27.015012 18.346146 4.111565 -15.494936 17.641373 -15.481139 4.331090 2.355313 -12.974797 16.089841 8.008025 -3.543942 -20.694015 -16.750240 23.822986 129.994059 -49.231310 -84.796915 26.803472 -6.853661 2.551876 11.134219 15.434851 9.366121 5.591120 10.126414 20.850346 -12.901016 -3.437865 -3.759249 0.000001 0.000002 -0.000006 5.435912 -8.528803 -67.425845 -23.691691 38.796796 46.479769 -10.227834 20.857885 3.339041 -0.000013 -0.000000 -0.000008 
155.696198 -113.926231 8.300388 179.081686 37.321499 -189.129509 -3.316014 2.675326 -14.392762 0.776897 0.920941 18.523261 -7.044309 -8.465536 11.572886 12.035540 -12.143331 3.442252 -17.103045 -1.670500 -7.951751 27.125630 18.416488 4.145454 -15.575528 17.731079 -15.502690 4.368478 2.337456 -12.970960 16.030451 8.082718 -3.585860 -20.664121 -16.639717 23.768382 130.092742 -49.175668 -84.954678 26.845143 -6.834273 2.451487 11.359998 15.583051 9.351314 5.563121 10.141021 20.844129 -12.976029 -3.099308 -3.867729 -0.000000 -0.000002 0.000002 5.227371 -8.844223 -66.555877 -22.766376 37.801265 45.848509 -10.580490 20.375527 3.688639 -0.000015 0.000001 0.000005 
155.359268 -113.827118 8.441627 179.304296 38.163931 -188.798873 -3.204186 2.751487 -14.540607 0.847079 0.931259 18.541232 -7.002207 -8.424377 11.471234 12.092064 -12.091587 3.401375 -17.081540 -1.599865 -7.979900 27.182177 18.475061 4.182245 -15.633308 17.808625 -15.576368 4.344235 2.355502 -13.024373 16.055840 8.151286 -3.579475 -20.751346 -16.541227 23.732865 130.143162 -49.109289 -84.922583 26.893510 -6.813095 2.464166 11.618607 15.900668 9.385078 5.540993 10.027818 20.776221 -13.102003 -2.790360 -3.998116 -0.000001 -0.000003 0.000003 5.023030 -9.181818 -65.657925 -21.796580 36.764303 45.201044 -10.818330 19.906632 3.989297 -0.000013 -0.000006 0.000006 
155.022507 -113.729866 8.578289 179.521605 38.990248 -188.457664 -3.138131 2.835179 -14.684907 0.986726 0.934560 18.556695 -6.965706 -8.434514 11.372001 12.065592 -12.079482 3.358190 -17.113003 -1.593410 -7.972944 27.269208 18.574718 4.189042 -15.680670 17.886758 -15.623564 4.314861 2.360956 -13.053398 15.977257 8.177053 -3.606662 -20.744350 -16.429077 23.644563 130.292552 -49.094464 -85.138670 26.848663 -6.769179 2.437360 11.839591 15.988715 9.374675 5.567258 10.276011 20.789569 -13.153932 -2.686750 -4.085932 -0.000000 0.000002 0.000003 4.959294 -9.582009 -64.839437 -20.772851 35.750163 44.528206 -11.311124 19.470544 4.453786 -0.000005 -0.000005 -0.000004 
